<svg width="32" height="32" viewBox="0 0 32 32" fill="none" xmlns="http://www.w3.org/2000/svg">
<circle cx="16" cy="16" r="16" fill="white"/>
<path d="M19.3125 13.9045V13.5781C19.3125 12.1086 17.0959 11 14.1562 11C11.2166 11 9 12.1086 9 13.5781V15.9219C9 17.1459 10.5381 18.1186 12.75 18.4098V18.7344C12.75 20.2039 14.9666 21.3125 17.9062 21.3125C20.8459 21.3125 23.0625 20.2039 23.0625 18.7344V16.3906C23.0625 15.1777 21.573 14.2039 19.3125 13.9045ZM22.125 16.3906C22.125 17.1652 20.3209 18.0312 17.9062 18.0312C17.6877 18.0312 17.4709 18.0236 17.257 18.0096C18.5209 17.549 19.3125 16.8008 19.3125 15.9219V14.852C21.0627 15.1127 22.125 15.8205 22.125 16.3906ZM12.75 17.46V16.066C13.2163 16.1268 13.686 16.1569 14.1562 16.1562C14.6265 16.1569 15.0962 16.1268 15.5625 16.066V17.46C15.0969 17.5287 14.6269 17.563 14.1562 17.5625C13.6856 17.563 13.2156 17.5287 12.75 17.46ZM18.375 15.0975V15.9219C18.375 16.4135 17.6479 16.9414 16.5 17.2619V15.8926C17.2564 15.7092 17.8969 15.4361 18.375 15.0975ZM14.1562 11.9375C16.5709 11.9375 18.375 12.8035 18.375 13.5781C18.375 14.3527 16.5709 15.2188 14.1562 15.2188C11.7416 15.2188 9.9375 14.3527 9.9375 13.5781C9.9375 12.8035 11.7416 11.9375 14.1562 11.9375ZM9.9375 15.9219V15.0975C10.4156 15.4361 11.0561 15.7092 11.8125 15.8926V17.2619C10.6646 16.9414 9.9375 16.4135 9.9375 15.9219ZM13.6875 18.7344V18.49C13.8416 18.4959 13.9975 18.5 14.1562 18.5C14.3836 18.5 14.6057 18.4924 14.8236 18.4795C15.0658 18.5662 15.3124 18.6397 15.5625 18.6998V20.0744C14.4146 19.7539 13.6875 19.226 13.6875 18.7344ZM16.5 20.2725V18.875C16.9661 18.9377 17.4359 18.969 17.9062 18.9688C18.3765 18.9694 18.8462 18.9393 19.3125 18.8785V20.2725C18.38 20.4092 17.4325 20.4092 16.5 20.2725ZM20.25 20.0744V18.7051C21.0064 18.5217 21.6469 18.2486 22.125 17.91V18.7344C22.125 19.226 21.3979 19.7539 20.25 20.0744Z" fill="black"/>
<path d="M20.4322 5.23228C26.3987 7.39675 29.4751 13.9723 27.3036 19.9192C25.7596 24.1469 21.9789 26.9189 17.7781 27.3903M17.7781 27.3903L19.4987 24.5399M17.7781 27.3903L20.5889 29M12.5678 26.7677C6.60122 24.6032 3.5248 18.0277 5.69648 12.0809C7.24038 7.85308 11.0211 5.08122 15.2219 4.60971M15.2219 4.60971L13.5013 7.46015M15.2219 4.60971L12.4112 3" stroke="black" stroke-width="1.5" stroke-linecap="round" stroke-linejoin="round"/>
</svg>
